<svg version="1.1" id="Layer_1" xmlns="http://www.w3.org/2000/svg" xmlns:xlink="http://www.w3.org/1999/xlink" x="0px" y="0px"
	 width="100%" viewBox="0 0 2000 500" enable-background="new 0 0 2000 500" xml:space="preserve">
<path fill="#FFFFFF" opacity="1.000000" stroke="none" 
	d="
M1419.000000,501.000000 
	C946.000000,501.000000 473.500000,501.000000 1.000000,501.000000 
	C1.000000,334.333344 1.000000,167.666672 1.000000,1.000000 
	C667.666687,1.000000 1334.333374,1.000000 2001.000000,1.000000 
	C2001.000000,167.666672 2001.000000,334.333344 2001.000000,501.000000 
	C1807.166626,501.000000 1613.333374,501.000000 1419.000000,501.000000 
M1002.841553,297.941986 
	C1003.235229,306.689453 1004.749207,315.559967 1003.804688,324.160461 
	C1001.345398,346.552307 984.715332,365.063416 964.452759,368.435486 
	C957.992493,369.510559 951.188660,368.460236 944.542603,368.490021 
	C913.730347,368.627991 882.918335,368.803802 852.106201,368.966217 
	C851.772949,368.967987 851.439331,368.961639 851.106567,368.975800 
	C845.554382,369.211945 841.790527,372.946106 841.550659,378.453217 
	C841.260498,385.115967 845.451660,388.992859 853.093262,388.996796 
	C887.750854,389.014679 922.408813,388.903503 957.065796,389.051788 
	C972.026428,389.115814 985.153381,384.365387 996.755005,375.161530 
	C1024.669800,353.016052 1033.284180,309.843781 1016.063538,277.195129 
	C1002.813965,252.075089 982.371704,238.468231 953.315491,238.950943 
	C938.156921,239.202774 922.990479,238.932861 907.828247,239.017761 
	C898.077881,239.072342 889.522705,235.844727 882.033752,229.812195 
	C861.247986,213.068634 855.125793,180.883759 868.122375,156.202698 
	C876.144836,140.967621 888.192505,131.063232 905.890442,129.497452 
	C909.999451,129.133926 914.192383,129.853271 918.345215,129.828827 
	C950.474060,129.639633 982.602539,129.390121 1014.731140,129.159409 
	C1014.897766,129.158203 1015.064514,129.163040 1015.231018,129.157654 
	C1020.220703,128.996140 1023.453857,126.447090 1024.566162,121.798820 
	C1025.598999,117.482216 1023.699280,112.540359 1019.750610,110.753578 
	C1017.568054,109.765968 1014.940308,109.387474 1012.510559,109.377098 
	C978.521118,109.231728 944.531250,109.169075 910.541443,109.152954 
	C900.079407,109.147987 889.901794,110.908760 880.695984,116.067558 
	C853.273254,131.434845 841.341858,155.714737 841.613037,186.371323 
	C841.823303,210.133820 851.094543,230.003571 869.459778,245.341400 
	C878.474609,252.870224 888.885925,258.243225 900.548279,258.790039 
	C918.651978,259.638855 936.826355,259.242035 954.965271,258.985657 
	C967.082092,258.814453 977.554993,262.602020 986.453857,270.623657 
	C994.438232,277.820923 999.590759,286.867493 1002.841553,297.941986 
M690.997864,306.495422 
	C690.965027,311.159363 691.310120,315.862030 690.837402,320.480957 
	C687.922974,348.959503 662.677490,370.138855 633.327454,368.918152 
	C605.184753,367.747650 581.689209,343.775726 581.332397,315.561737 
	C581.080078,295.606354 581.160278,275.646332 581.153381,255.688400 
	C581.141174,220.533844 581.201233,185.379272 581.172058,150.224747 
	C581.165344,142.154007 575.415039,137.745895 568.059082,139.961044 
	C563.440430,141.351898 561.449097,144.877457 561.445374,152.040375 
	C561.424988,191.193787 561.399963,230.347244 561.452209,269.500580 
	C561.474426,286.145386 561.175964,302.812592 561.922424,319.429230 
	C563.033264,344.159393 574.977722,363.417358 595.322693,376.698517 
	C619.920593,392.756073 646.277649,393.950470 672.019531,379.790802 
	C697.666199,365.683502 710.955750,343.161621 711.049194,313.605194 
	C711.200867,265.622009 711.066956,217.637924 711.052917,169.654205 
	C711.050903,162.823212 711.130615,155.990738 711.013855,149.161667 
	C710.920349,143.694336 707.487549,140.062836 702.201721,139.505081 
	C695.468262,138.794571 691.083374,143.496674 691.077515,151.550385 
	C691.040344,202.865982 691.022217,254.181595 690.997864,306.495422 
M1825.781372,366.849762 
	C1825.807251,371.348663 1825.692627,375.853973 1825.897461,380.344727 
	C1826.117065,385.165009 1829.789795,388.685913 1834.540771,388.991394 
	C1841.441284,389.435089 1845.444458,385.361969 1845.494995,377.343506 
	C1845.604370,360.012695 1845.614868,342.680206 1845.497925,325.349518 
	C1845.445312,317.535065 1845.804321,309.594391 1844.589355,301.930908 
	C1835.758911,246.226898 1770.700928,220.103088 1725.526611,253.955795 
	C1722.321899,256.357452 1719.298950,259.001740 1715.590942,262.022614 
	C1715.590942,259.287079 1715.590942,257.464996 1715.590942,255.642944 
	C1715.590942,220.313370 1715.598145,184.983780 1715.573120,149.654221 
	C1715.571533,147.497574 1715.477051,145.315826 1715.143677,143.189972 
	C1714.507812,139.135681 1712.006836,136.710968 1708.030273,135.811600 
	C1700.601685,134.131516 1695.795654,138.531265 1695.793945,147.133698 
	C1695.779053,223.783005 1695.785156,300.432312 1695.788086,377.081604 
	C1695.788086,378.081146 1695.792725,379.082703 1695.853271,380.079834 
	C1696.149170,384.968475 1698.986694,387.678162 1703.574829,388.512482 
	C1710.624390,389.794495 1715.391235,385.490448 1715.484619,377.514374 
	C1715.712891,358.029572 1715.739746,338.542542 1715.873169,319.056549 
	C1715.905151,314.392853 1715.588989,309.670593 1716.196411,305.076202 
	C1719.742188,278.256134 1744.486450,258.182404 1772.794922,258.925110 
	C1799.618408,259.628876 1823.552979,281.547852 1825.028687,308.071716 
	C1825.979370,325.159912 1825.107422,342.348236 1825.114624,359.491699 
	C1825.115479,361.632538 1825.497437,363.773285 1825.781372,366.849762 
M1071.559082,267.072144 
	C1057.939941,284.711456 1052.824951,304.449219 1055.937378,326.610840 
	C1060.060669,355.969604 1087.133423,384.618713 1116.652710,387.642487 
	C1136.122070,389.636810 1155.897461,388.756409 1175.537842,388.885162 
	C1180.453735,388.917389 1184.008301,384.204865 1184.002563,378.912842 
	C1183.997070,373.629669 1180.448242,369.410736 1175.404785,369.049591 
	C1172.088379,368.812164 1168.742188,369.019836 1165.410645,368.958466 
	C1150.435425,368.682678 1135.354858,369.397339 1120.510498,367.851440 
	C1098.410645,365.550049 1078.985474,345.593750 1076.290405,324.034576 
	C1078.133423,324.034576 1079.927979,324.028229 1081.722534,324.035522 
	C1121.034180,324.195190 1160.346436,324.300568 1199.656982,324.603668 
	C1203.593506,324.634033 1205.181152,323.440582 1204.945923,319.577240 
	C1204.572510,313.442230 1204.746826,307.238220 1203.900391,301.173523 
	C1199.296997,268.189453 1167.346436,239.944092 1134.088257,239.050461 
	C1109.007935,238.376556 1088.352295,247.540710 1071.559082,267.072144 
M1251.614258,360.878540 
	C1274.707764,391.049133 1326.462158,402.982300 1365.145020,366.140869 
	C1365.145020,370.395569 1365.073120,374.144470 1365.160522,377.889679 
	C1365.323486,384.871063 1369.114624,388.997131 1375.249146,389.002289 
	C1381.518433,389.007538 1385.077515,385.062683 1385.084351,377.920166 
	C1385.105103,356.102814 1385.163330,334.285004 1385.056030,312.468109 
	C1384.808716,262.171326 1333.100586,226.207886 1285.777466,243.114029 
	C1237.423462,260.388519 1219.308350,319.062958 1251.614258,360.878540 
M246.041687,273.500000 
	C246.041687,302.495605 246.041183,331.491180 246.042114,360.486786 
	C246.042297,366.485870 245.932022,372.487854 246.082031,378.483246 
	C246.245575,385.020050 250.291153,389.089386 256.228058,389.003784 
	C262.498871,388.913361 266.000519,384.496643 266.001312,376.577454 
	C266.008453,306.088043 266.005524,235.598618 266.005524,165.109192 
	C266.005524,163.176712 266.005524,161.244247 266.005524,159.005493 
	C276.781372,159.005493 286.921356,159.005600 297.061340,159.005463 
	C313.225586,159.005249 329.389954,159.039474 345.554016,158.986038 
	C351.284912,158.967102 355.170654,155.388443 355.583344,150.020416 
	C356.008453,144.490814 352.368835,140.168945 346.588348,139.471909 
	C344.942535,139.273453 343.262207,139.323883 341.597687,139.323685 
	C284.609772,139.317169 227.621841,139.318298 170.633911,139.318512 
	C169.634064,139.318512 168.633286,139.293396 167.634521,139.326797 
	C160.595337,139.562210 156.339661,143.373734 156.479919,149.375626 
	C156.620407,155.385452 161.515259,159.232117 167.889557,159.142365 
	C192.047806,158.802185 216.213715,159.005493 240.376755,159.005508 
	C242.148392,159.005508 243.920013,159.005493 246.041702,159.005493 
	C246.041702,197.239624 246.041702,234.869812 246.041687,273.500000 
M411.579590,159.074570 
	C391.545990,178.392029 383.467804,201.867233 389.803741,228.961746 
	C399.890930,272.097748 442.785004,295.843781 485.672150,282.997131 
	C536.553040,267.756042 554.475220,203.606903 518.973999,164.224411 
	C490.979126,133.168976 442.442413,131.085968 411.579590,159.074570 
M1644.491211,389.003540 
	C1647.822021,389.003448 1651.153320,389.043854 1654.483398,388.994812 
	C1661.546143,388.890839 1665.196777,385.340332 1665.129883,378.705231 
	C1665.066772,372.444305 1661.365356,369.009918 1654.471069,368.979095 
	C1642.980347,368.927704 1631.484131,369.168915 1619.999390,368.900299 
	C1591.180908,368.226227 1567.279419,343.823395 1567.008423,315.039246 
	C1566.745483,287.096344 1586.837402,263.382538 1614.835571,260.129333 
	C1627.998901,258.599884 1641.424072,259.301514 1654.731567,259.045837 
	C1661.407837,258.917542 1665.003662,255.735092 1665.126831,249.673752 
	C1665.256470,243.292526 1661.620850,239.059372 1655.208130,239.074448 
	C1641.564331,239.106522 1627.847168,238.692291 1614.292358,239.920578 
	C1578.339355,243.178589 1549.347168,273.212646 1547.133179,308.539398 
	C1544.782227,346.048279 1569.261963,379.517517 1605.747803,386.783386 
	C1617.991821,389.221680 1630.893311,388.358002 1644.491211,389.003540 
M1510.446899,239.566101 
	C1482.692627,236.667694 1457.034058,240.875275 1435.542603,262.991058 
	C1435.542603,259.408142 1435.557007,257.339478 1435.538696,255.271118 
	C1435.519409,253.107391 1435.595337,250.932877 1435.407349,248.782501 
	C1434.892578,242.892212 1430.855347,238.978775 1425.484375,239.016174 
	C1419.881958,239.055176 1415.798096,243.223083 1415.790283,249.387436 
	C1415.735718,292.512512 1415.742798,335.637726 1415.815796,378.762756 
	C1415.818970,380.668884 1416.250610,382.801056 1417.176147,384.435120 
	C1419.654663,388.810455 1423.892944,389.922150 1428.400757,388.700958 
	C1432.570190,387.571411 1435.159058,384.531555 1435.282959,379.942200 
	C1435.525024,370.965118 1435.839478,361.987305 1435.892456,353.008423 
	C1435.973999,339.187592 1435.657959,325.362427 1435.874268,311.544800 
	C1436.247192,287.729034 1453.354736,266.142303 1476.750610,261.209290 
	C1486.221313,259.212311 1496.206665,259.551727 1505.970093,259.083984 
	C1512.001587,258.795013 1515.736572,256.726746 1516.874756,252.343765 
	C1518.278076,246.939896 1516.624634,243.295486 1510.446899,239.566101 
M390.587158,362.115265 
	C397.881104,349.449402 405.271820,336.837830 412.423431,324.092133 
	C415.466980,318.667847 413.742401,313.363922 408.530029,310.499878 
	C403.575867,307.777710 398.385681,309.197998 395.328003,314.456177 
	C383.889740,334.125977 372.514954,353.833008 361.204315,373.576447 
	C358.006439,379.158569 359.522522,384.781677 364.694855,387.699890 
	C369.675903,390.510223 374.925720,388.930725 378.196716,383.425018 
	C382.268158,376.571899 386.185638,369.627289 390.587158,362.115265 
M413.495209,300.989380 
	C416.809967,302.873077 420.030609,304.954132 423.462982,306.591248 
	C427.894623,308.705048 432.495331,307.074097 435.044464,302.851959 
	C437.710693,298.435883 437.381195,293.592194 433.275299,290.873566 
	C426.519104,286.400146 419.481384,282.295044 412.292358,278.553375 
	C407.862732,276.247864 403.161499,278.522766 400.711884,283.243073 
	C398.293396,287.903534 399.444183,292.507690 403.875427,295.312988 
	C406.813324,297.172882 409.868927,298.846832 413.495209,300.989380 
z"/>
<path fill="#0FC1DF" opacity="1.000000" stroke="none" 
	d="
M1002.729065,297.545441 
	C999.590759,286.867493 994.438232,277.820923 986.453857,270.623657 
	C977.554993,262.602020 967.082092,258.814453 954.965271,258.985657 
	C936.826355,259.242035 918.651978,259.638855 900.548279,258.790039 
	C888.885925,258.243225 878.474609,252.870224 869.459778,245.341400 
	C851.094543,230.003571 841.823303,210.133820 841.613037,186.371323 
	C841.341858,155.714737 853.273254,131.434845 880.695984,116.067558 
	C889.901794,110.908760 900.079407,109.147987 910.541443,109.152954 
	C944.531250,109.169075 978.521118,109.231728 1012.510559,109.377098 
	C1014.940308,109.387474 1017.568054,109.765968 1019.750610,110.753578 
	C1023.699280,112.540359 1025.598999,117.482216 1024.566162,121.798820 
	C1023.453857,126.447090 1020.220703,128.996140 1015.231018,129.157654 
	C1015.064514,129.163040 1014.897766,129.158203 1014.731140,129.159409 
	C982.602539,129.390121 950.474060,129.639633 918.345215,129.828827 
	C914.192383,129.853271 909.999451,129.133926 905.890442,129.497452 
	C888.192505,131.063232 876.144836,140.967621 868.122375,156.202698 
	C855.125793,180.883759 861.247986,213.068634 882.033752,229.812195 
	C889.522705,235.844727 898.077881,239.072342 907.828247,239.017761 
	C922.990479,238.932861 938.156921,239.202774 953.315491,238.950943 
	C982.371704,238.468231 1002.813965,252.075089 1016.063538,277.195129 
	C1033.284180,309.843781 1024.669800,353.016052 996.755005,375.161530 
	C985.153381,384.365387 972.026428,389.115814 957.065796,389.051788 
	C922.408813,388.903503 887.750854,389.014679 853.093262,388.996796 
	C845.451660,388.992859 841.260498,385.115967 841.550659,378.453217 
	C841.790527,372.946106 845.554382,369.211945 851.106567,368.975800 
	C851.439331,368.961639 851.772949,368.967987 852.106201,368.966217 
	C882.918335,368.803802 913.730347,368.627991 944.542603,368.490021 
	C951.188660,368.460236 957.992493,369.510559 964.452759,368.435486 
	C984.715332,365.063416 1001.345398,346.552307 1003.804688,324.160461 
	C1004.749207,315.559967 1003.235229,306.689453 1002.729065,297.545441 
z"/>
<path fill="#0EC0DF" opacity="1.000000" stroke="none" 
	d="
M690.997803,305.996307 
	C691.022217,254.181595 691.040344,202.865982 691.077515,151.550385 
	C691.083374,143.496674 695.468262,138.794571 702.201721,139.505081 
	C707.487549,140.062836 710.920349,143.694336 711.013855,149.161667 
	C711.130615,155.990738 711.050903,162.823212 711.052917,169.654205 
	C711.066956,217.637924 711.200867,265.622009 711.049194,313.605194 
	C710.955750,343.161621 697.666199,365.683502 672.019531,379.790802 
	C646.277649,393.950470 619.920593,392.756073 595.322693,376.698517 
	C574.977722,363.417358 563.033264,344.159393 561.922424,319.429230 
	C561.175964,302.812592 561.474426,286.145386 561.452209,269.500580 
	C561.399963,230.347244 561.424988,191.193787 561.445374,152.040375 
	C561.449097,144.877457 563.440430,141.351898 568.059082,139.961044 
	C575.415039,137.745895 581.165344,142.154007 581.172058,150.224747 
	C581.201233,185.379272 581.141174,220.533844 581.153381,255.688400 
	C581.160278,275.646332 581.080078,295.606354 581.332397,315.561737 
	C581.689209,343.775726 605.184753,367.747650 633.327454,368.918152 
	C662.677490,370.138855 687.922974,348.959503 690.837402,320.480957 
	C691.310120,315.862030 690.965027,311.159363 690.997803,305.996307 
z"/>
<path fill="#0EC0DF" opacity="1.000000" stroke="none" 
	d="
M1825.742188,366.381897 
	C1825.497437,363.773285 1825.115479,361.632538 1825.114624,359.491699 
	C1825.107422,342.348236 1825.979370,325.159912 1825.028687,308.071716 
	C1823.552979,281.547852 1799.618408,259.628876 1772.794922,258.925110 
	C1744.486450,258.182404 1719.742188,278.256134 1716.196411,305.076202 
	C1715.588989,309.670593 1715.905151,314.392853 1715.873169,319.056549 
	C1715.739746,338.542542 1715.712891,358.029572 1715.484619,377.514374 
	C1715.391235,385.490448 1710.624390,389.794495 1703.574829,388.512482 
	C1698.986694,387.678162 1696.149170,384.968475 1695.853271,380.079834 
	C1695.792725,379.082703 1695.788086,378.081146 1695.788086,377.081604 
	C1695.785156,300.432312 1695.779053,223.783005 1695.793945,147.133698 
	C1695.795654,138.531265 1700.601685,134.131516 1708.030273,135.811600 
	C1712.006836,136.710968 1714.507812,139.135681 1715.143677,143.189972 
	C1715.477051,145.315826 1715.571533,147.497574 1715.573120,149.654221 
	C1715.598145,184.983780 1715.590942,220.313370 1715.590942,255.642944 
	C1715.590942,257.464996 1715.590942,259.287079 1715.590942,262.022614 
	C1719.298950,259.001740 1722.321899,256.357452 1725.526611,253.955795 
	C1770.700928,220.103088 1835.758911,246.226898 1844.589355,301.930908 
	C1845.804321,309.594391 1845.445312,317.535065 1845.497925,325.349518 
	C1845.614868,342.680206 1845.604370,360.012695 1845.494995,377.343506 
	C1845.444458,385.361969 1841.441284,389.435089 1834.540771,388.991394 
	C1829.789795,388.685913 1826.117065,385.165009 1825.897461,380.344727 
	C1825.692627,375.853973 1825.807251,371.348663 1825.742188,366.381897 
z"/>
<path fill="#0EC0DF" opacity="1.000000" stroke="none" 
	d="
M1071.776611,266.789886 
	C1088.352295,247.540710 1109.007935,238.376556 1134.088257,239.050461 
	C1167.346436,239.944092 1199.296997,268.189453 1203.900391,301.173523 
	C1204.746826,307.238220 1204.572510,313.442230 1204.945923,319.577240 
	C1205.181152,323.440582 1203.593506,324.634033 1199.656982,324.603668 
	C1160.346436,324.300568 1121.034180,324.195190 1081.722534,324.035522 
	C1079.927979,324.028229 1078.133423,324.034576 1076.290405,324.034576 
	C1078.985474,345.593750 1098.410645,365.550049 1120.510498,367.851440 
	C1135.354858,369.397339 1150.435425,368.682678 1165.410645,368.958466 
	C1168.742188,369.019836 1172.088379,368.812164 1175.404785,369.049591 
	C1180.448242,369.410736 1183.997070,373.629669 1184.002563,378.912842 
	C1184.008301,384.204865 1180.453735,388.917389 1175.537842,388.885162 
	C1155.897461,388.756409 1136.122070,389.636810 1116.652710,387.642487 
	C1087.133423,384.618713 1060.060669,355.969604 1055.937378,326.610840 
	C1052.824951,304.449219 1057.939941,284.711456 1071.776611,266.789886 
M1183.908203,302.782684 
	C1178.149170,275.868958 1154.115967,257.267334 1125.781372,259.197479 
	C1101.140015,260.876068 1077.862061,282.207977 1076.430542,303.691162 
	C1076.748291,303.779694 1077.066162,303.945648 1077.383911,303.945801 
	C1112.350220,303.964264 1147.316406,303.971680 1182.282715,303.962677 
	C1182.762695,303.962555 1183.242798,303.746155 1183.908203,302.782684 
z"/>
<path fill="#0EC1DF" opacity="1.000000" stroke="none" 
	d="
M1251.386963,360.601135 
	C1219.308350,319.062958 1237.423462,260.388519 1285.777466,243.114029 
	C1333.100586,226.207886 1384.808716,262.171326 1385.056030,312.468109 
	C1385.163330,334.285004 1385.105103,356.102814 1385.084351,377.920166 
	C1385.077515,385.062683 1381.518433,389.007538 1375.249146,389.002289 
	C1369.114624,388.997131 1365.323486,384.871063 1365.160522,377.889679 
	C1365.073120,374.144470 1365.145020,370.395569 1365.145020,366.140869 
	C1326.462158,402.982300 1274.707764,391.049133 1251.386963,360.601135 
M1258.260864,295.937988 
	C1251.535034,317.358398 1255.422363,336.659790 1271.213867,352.623779 
	C1286.866943,368.447754 1306.147461,372.715698 1327.327148,366.253540 
	C1352.318237,358.628540 1367.471313,334.631500 1365.005615,307.754333 
	C1362.735352,283.008514 1341.943726,262.117188 1315.474487,259.340942 
	C1292.928101,256.976135 1268.377197,269.032013 1258.260864,295.937988 
z"/>
<path fill="#0FC1DF" opacity="1.000000" stroke="none" 
	d="
M246.041687,273.000000 
	C246.041702,234.869812 246.041702,197.239624 246.041702,159.005493 
	C243.920013,159.005493 242.148392,159.005508 240.376755,159.005508 
	C216.213715,159.005493 192.047806,158.802185 167.889557,159.142365 
	C161.515259,159.232117 156.620407,155.385452 156.479919,149.375626 
	C156.339661,143.373734 160.595337,139.562210 167.634521,139.326797 
	C168.633286,139.293396 169.634064,139.318512 170.633911,139.318512 
	C227.621841,139.318298 284.609772,139.317169 341.597687,139.323685 
	C343.262207,139.323883 344.942535,139.273453 346.588348,139.471909 
	C352.368835,140.168945 356.008453,144.490814 355.583344,150.020416 
	C355.170654,155.388443 351.284912,158.967102 345.554016,158.986038 
	C329.389954,159.039474 313.225586,159.005249 297.061340,159.005463 
	C286.921356,159.005600 276.781372,159.005493 266.005524,159.005493 
	C266.005524,161.244247 266.005524,163.176712 266.005524,165.109192 
	C266.005524,235.598618 266.008453,306.088043 266.001312,376.577454 
	C266.000519,384.496643 262.498871,388.913361 256.228058,389.003784 
	C250.291153,389.089386 246.245575,385.020050 246.082031,378.483246 
	C245.932022,372.487854 246.042297,366.485870 246.042114,360.486786 
	C246.041183,331.491180 246.041687,302.495605 246.041687,273.000000 
z"/>
<path fill="#0FC1DF" opacity="1.000000" stroke="none" 
	d="
M411.850098,158.844147 
	C442.442413,131.085968 490.979126,133.168976 518.973999,164.224411 
	C554.475220,203.606903 536.553040,267.756042 485.672150,282.997131 
	C442.785004,295.843781 399.890930,272.097748 389.803741,228.961746 
	C383.467804,201.867233 391.545990,178.392029 411.850098,158.844147 
M503.442383,248.915054 
	C515.335083,235.264084 520.463745,219.588913 516.365662,201.733337 
	C509.832458,173.267807 485.198059,156.699036 454.947021,159.902023 
	C423.164276,163.267212 401.067352,195.783752 409.653656,226.553101 
	C421.074707,267.480988 472.296265,280.045563 503.442383,248.915054 
z"/>
<path fill="#0EC1DF" opacity="1.000000" stroke="none" 
	d="
M1643.992676,389.003540 
	C1630.893311,388.358002 1617.991821,389.221680 1605.747803,386.783386 
	C1569.261963,379.517517 1544.782227,346.048279 1547.133179,308.539398 
	C1549.347168,273.212646 1578.339355,243.178589 1614.292358,239.920578 
	C1627.847168,238.692291 1641.564331,239.106522 1655.208130,239.074448 
	C1661.620850,239.059372 1665.256470,243.292526 1665.126831,249.673752 
	C1665.003662,255.735092 1661.407837,258.917542 1654.731567,259.045837 
	C1641.424072,259.301514 1627.998901,258.599884 1614.835571,260.129333 
	C1586.837402,263.382538 1566.745483,287.096344 1567.008423,315.039246 
	C1567.279419,343.823395 1591.180908,368.226227 1619.999390,368.900299 
	C1631.484131,369.168915 1642.980347,368.927704 1654.471069,368.979095 
	C1661.365356,369.009918 1665.066772,372.444305 1665.129883,378.705231 
	C1665.196777,385.340332 1661.546143,388.890839 1654.483398,388.994812 
	C1651.153320,389.043854 1647.822021,389.003448 1643.992676,389.003540 
z"/>
<path fill="#0EC1DF" opacity="1.000000" stroke="none" 
	d="
M1510.829102,239.713287 
	C1516.624634,243.295486 1518.278076,246.939896 1516.874756,252.343765 
	C1515.736572,256.726746 1512.001587,258.795013 1505.970093,259.083984 
	C1496.206665,259.551727 1486.221313,259.212311 1476.750610,261.209290 
	C1453.354736,266.142303 1436.247192,287.729034 1435.874268,311.544800 
	C1435.657959,325.362427 1435.973999,339.187592 1435.892456,353.008423 
	C1435.839478,361.987305 1435.525024,370.965118 1435.282959,379.942200 
	C1435.159058,384.531555 1432.570190,387.571411 1428.400757,388.700958 
	C1423.892944,389.922150 1419.654663,388.810455 1417.176147,384.435120 
	C1416.250610,382.801056 1415.818970,380.668884 1415.815796,378.762756 
	C1415.742798,335.637726 1415.735718,292.512512 1415.790283,249.387436 
	C1415.798096,243.223083 1419.881958,239.055176 1425.484375,239.016174 
	C1430.855347,238.978775 1434.892578,242.892212 1435.407349,248.782501 
	C1435.595337,250.932877 1435.519409,253.107391 1435.538696,255.271118 
	C1435.557007,257.339478 1435.542603,259.408142 1435.542603,262.991058 
	C1457.034058,240.875275 1482.692627,236.667694 1510.829102,239.713287 
z"/>
<path fill="#0FC1DF" opacity="1.000000" stroke="none" 
	d="
M390.378357,362.418732 
	C386.185638,369.627289 382.268158,376.571899 378.196716,383.425018 
	C374.925720,388.930725 369.675903,390.510223 364.694855,387.699890 
	C359.522522,384.781677 358.006439,379.158569 361.204315,373.576447 
	C372.514954,353.833008 383.889740,334.125977 395.328003,314.456177 
	C398.385681,309.197998 403.575867,307.777710 408.530029,310.499878 
	C413.742401,313.363922 415.466980,318.667847 412.423431,324.092133 
	C405.271820,336.837830 397.881104,349.449402 390.378357,362.418732 
z"/>
<path fill="#0FC1DF" opacity="1.000000" stroke="none" 
	d="
M413.183533,300.796692 
	C409.868927,298.846832 406.813324,297.172882 403.875427,295.312988 
	C399.444183,292.507690 398.293396,287.903534 400.711884,283.243073 
	C403.161499,278.522766 407.862732,276.247864 412.292358,278.553375 
	C419.481384,282.295044 426.519104,286.400146 433.275299,290.873566 
	C437.381195,293.592194 437.710693,298.435883 435.044464,302.851959 
	C432.495331,307.074097 427.894623,308.705048 423.462982,306.591248 
	C420.030609,304.954132 416.809967,302.873077 413.183533,300.796692 
z"/>
<path fill="#FEFFFF" opacity="1.000000" stroke="none" 
	d="
M1183.815430,303.206696 
	C1183.242798,303.746155 1182.762695,303.962555 1182.282715,303.962677 
	C1147.316406,303.971680 1112.350220,303.964264 1077.383911,303.945801 
	C1077.066162,303.945648 1076.748291,303.779694 1076.431274,303.688599 
	C1077.862061,282.207977 1101.140015,260.876068 1125.781372,259.197479 
	C1154.115967,257.267334 1178.149170,275.868958 1183.815430,303.206696 
z"/>
<path fill="#FEFFFF" opacity="1.000000" stroke="none" 
	d="
M1258.427490,295.583862 
	C1268.377197,269.032013 1292.928101,256.976135 1315.474487,259.340942 
	C1341.943726,262.117188 1362.735352,283.008514 1365.005615,307.754333 
	C1367.471313,334.631500 1352.318237,358.628540 1327.327148,366.253540 
	C1306.147461,372.715698 1286.866943,368.447754 1271.213867,352.623779 
	C1255.422363,336.659790 1251.535034,317.358398 1258.427490,295.583862 
z"/>
<path fill="#FEFFFF" opacity="1.000000" stroke="none" 
	d="
M503.199768,249.177673 
	C472.296265,280.045563 421.074707,267.480988 409.653656,226.553101 
	C401.067352,195.783752 423.164276,163.267212 454.947021,159.902023 
	C485.198059,156.699036 509.832458,173.267807 516.365662,201.733337 
	C520.463745,219.588913 515.335083,235.264084 503.199768,249.177673 
z"/>
</svg>